<svg xmlns="http://www.w3.org/2000/svg" version="1.1" xmlns:xlink="http://www.w3.org/1999/xlink" xmlns:svgjs="http://svgjs.dev/svgjs" width="2000" height="1999" viewBox="0 0 2000 1999"><g transform="matrix(1,0,0,1,-0.431486880466764,-0.4312711370263287)"><svg viewBox="0 0 343 343" data-background-color="#111111" preserveAspectRatio="xMidYMid meet" height="1999" width="2000" xmlns="http://www.w3.org/2000/svg" xmlns:xlink="http://www.w3.org/1999/xlink"><g id="tight-bounds" transform="matrix(1,0,0,1,0.0740000000000407,0.07400000000001228)"><svg viewBox="0 0 342.85155851775386 342.85155851775386" height="342.85155851775386" width="342.85155851775386"><g><svg></svg></g><g><svg viewBox="0 0 342.85155851775386 342.85155851775386" height="342.85155851775386" width="342.85155851775386"><g><path d="M0 171.426c0-94.676 76.75-171.426 171.426-171.426 94.676 0 171.426 76.75 171.426 171.426 0 94.676-76.75 171.426-171.426 171.426-94.676 0-171.426-76.75-171.426-171.426zM171.426 340.687c93.481 0 169.262-75.781 169.261-169.261 0-93.481-75.781-169.262-169.261-169.262-93.481 0-169.262 75.781-169.262 169.262 0 93.481 75.781 169.262 169.262 169.261z" data-fill-palette-color="tertiary" fill="#ffdc00" stroke="transparent"></path><ellipse rx="164.56874808852186" ry="164.56874808852186" cx="171.42577925887693" cy="171.42577925887693" fill="#ffdc00" stroke="transparent" stroke-width="0" fill-opacity="1" data-fill-palette-color="tertiary"></ellipse></g><g transform="matrix(1,0,0,1,64.84655864529837,115.60307883933265)"><svg viewBox="0 0 213.1584412271571 111.64540083908855" height="111.64540083908855" width="213.1584412271571"><g><svg viewBox="0 0 213.1584412271571 111.64540083908855" height="111.64540083908855" width="213.1584412271571"><g><svg viewBox="0 0 213.1584412271571 111.64540083908855" height="111.64540083908855" width="213.1584412271571"><g transform="matrix(1,0,0,1,0,67.15325163659028)"><svg viewBox="0 0 213.1584412271571 44.49214920249827" height="44.49214920249827" width="213.1584412271571"><g id="textblocktransform"><svg viewBox="0 0 213.1584412271571 44.49214920249827" height="44.49214920249827" width="213.1584412271571" id="textblock"><g><svg viewBox="0 0 213.1584412271571 23.996939285389743" height="23.996939285389743" width="213.1584412271571"><g transform="matrix(1,0,0,1,0,0)"><svg width="213.1584412271571" viewBox="3.98 -35.91 434.56 48.92" height="23.996939285389743" data-palette-color="#190e0e"><path d="M29.22-4.49L29.22 0 3.98 0 3.98-35.16 29.22-35.16 29.22-30.66 13.67-30.66 13.67-19.8 25.68-19.8 25.68-15.33 13.67-15.33 13.67-4.49 29.22-4.49ZM59.49-21.22L59.49-21.22 55.93-19.8Q55.08-22.49 53.07-23.93 51.07-25.37 48.26-25.37L48.26-25.37Q46.75-25.37 45.57-24.89 44.38-24.41 43.49-23.58 42.6-22.75 41.98-21.66 41.35-20.56 40.96-19.31 40.57-18.07 40.4-16.74 40.23-15.41 40.23-14.16L40.23-14.16Q40.23-12.82 40.38-11.45 40.52-10.08 40.88-8.83 41.23-7.57 41.82-6.48 42.4-5.4 43.3-4.59 44.19-3.78 45.42-3.32 46.65-2.86 48.26-2.86L48.26-2.86Q49.56-2.86 50.73-3.25 51.9-3.64 52.88-4.35 53.85-5.05 54.61-6.03 55.37-7.01 55.81-8.2L55.81-8.2 59.4-6.88Q58.59-4.96 57.26-3.55 55.93-2.15 54.25-1.23 52.56-0.32 50.63 0.12 48.7 0.56 46.73 0.56L46.73 0.56Q43.53 0.56 40.79-0.52 38.06-1.61 36.07-3.58 34.08-5.54 32.96-8.24 31.83-10.94 31.83-14.16L31.83-14.16Q31.83-17.41 32.94-20.12 34.06-22.83 36.03-24.78 38.01-26.73 40.74-27.81 43.48-28.88 46.73-28.88L46.73-28.88Q48.78-28.88 50.73-28.43 52.68-27.98 54.36-27.04 56.03-26.1 57.36-24.66 58.69-23.22 59.49-21.22ZM94.16-14.16L94.16-14.16Q94.16-11.96 93.57-10.03 92.99-8.11 91.95-6.47 90.91-4.83 89.45-3.53 87.98-2.22 86.24-1.32 84.49-0.42 82.5 0.07 80.51 0.56 78.41 0.56L78.41 0.56Q76.31 0.56 74.34 0.07 72.36-0.42 70.61-1.32 68.87-2.22 67.4-3.53 65.94-4.83 64.9-6.47 63.86-8.11 63.28-10.05 62.69-11.99 62.69-14.16L62.69-14.16Q62.69-16.33 63.28-18.27 63.86-20.21 64.9-21.85 65.94-23.49 67.4-24.79 68.87-26.1 70.61-27 72.36-27.91 74.34-28.39 76.31-28.88 78.41-28.88L78.41-28.88Q80.51-28.88 82.5-28.39 84.49-27.91 86.24-27 87.98-26.1 89.45-24.79 90.91-23.49 91.95-21.85 92.99-20.21 93.57-18.27 94.16-16.33 94.16-14.16ZM85.76-14.16L85.76-14.16Q85.76-15.33 85.63-16.64 85.49-17.94 85.18-19.2 84.86-20.46 84.31-21.62 83.76-22.78 82.95-23.65 82.15-24.51 81.03-25.04 79.9-25.56 78.41-25.56L78.41-25.56Q77-25.56 75.9-25.02 74.8-24.49 73.98-23.6 73.16-22.71 72.61-21.53 72.07-20.36 71.72-19.1 71.38-17.85 71.24-16.56 71.09-15.28 71.09-14.16L71.09-14.16Q71.09-13.04 71.24-11.76 71.38-10.47 71.72-9.2 72.07-7.93 72.61-6.77 73.16-5.62 73.98-4.72 74.8-3.83 75.9-3.3 77-2.76 78.41-2.76L78.41-2.76Q79.88-2.76 81-3.28 82.12-3.81 82.94-4.69 83.76-5.57 84.3-6.71 84.83-7.86 85.16-9.13 85.49-10.4 85.63-11.69 85.76-12.99 85.76-14.16ZM142.99-16.46L142.99-16.46Q142.99-13.55 142.3-10.4 141.62-7.25 140.39-4.26 139.15-1.27 137.42 1.39 135.69 4.05 133.56 6.01L133.56 6.01 130.46 4.32Q131.17 3.05 131.76 1.46 132.34-0.12 132.83-1.88 133.32-3.64 133.68-5.49 134.05-7.35 134.31-9.19 134.56-11.04 134.68-12.77 134.81-14.5 134.81-16.02L134.81-16.02Q134.81-16.87 134.76-17.87 134.71-18.87 134.55-19.87 134.39-20.87 134.07-21.79 133.76-22.71 133.21-23.43 132.66-24.15 131.84-24.57 131.02-25 129.88-25L129.88-25Q128.75-25 127.96-24.4 127.17-23.8 126.6-22.85 126.04-21.9 125.71-20.7 125.38-19.51 125.21-18.3 125.04-17.09 124.98-15.99 124.92-14.89 124.92-14.14L124.92-14.14 124.92 0 116.69 0 116.69-13.13Q116.69-13.99 116.72-15.2 116.74-16.41 116.66-17.72 116.57-19.04 116.34-20.35 116.11-21.66 115.61-22.68 115.1-23.71 114.25-24.35 113.4-25 112.1-25L112.1-25Q111-25 110.26-24.39 109.51-23.78 109.01-22.81 108.51-21.85 108.23-20.64 107.95-19.43 107.82-18.23 107.68-17.02 107.66-15.93 107.63-14.84 107.63-14.14L107.63-14.14 107.63 0 99.36 0 99.36-28.2 102.53-28.2 105.56-21.63Q106.58-25.05 108.79-26.97 111-28.88 114.67-28.88L114.67-28.88Q117.96-28.88 120.13-27.51 122.31-26.15 123.55-23.07L123.55-23.07Q124.26-24.41 125.13-25.49 125.99-26.56 127.06-27.32 128.12-28.08 129.41-28.48 130.71-28.88 132.27-28.88L132.27-28.88Q135.15-28.88 137.19-27.94 139.23-27 140.52-25.34 141.81-23.68 142.4-21.4 142.99-19.12 142.99-16.46ZM192.1-16.46L192.1-16.46Q192.1-13.55 191.42-10.4 190.74-7.25 189.5-4.26 188.27-1.27 186.54 1.39 184.8 4.05 182.68 6.01L182.68 6.01 179.58 4.32Q180.29 3.05 180.87 1.46 181.46-0.12 181.95-1.88 182.44-3.64 182.8-5.49 183.17-7.35 183.43-9.19 183.68-11.04 183.8-12.77 183.93-14.5 183.93-16.02L183.93-16.02Q183.93-16.87 183.88-17.87 183.83-18.87 183.67-19.87 183.51-20.87 183.19-21.79 182.88-22.71 182.33-23.43 181.78-24.15 180.96-24.57 180.14-25 178.99-25L178.99-25Q177.87-25 177.08-24.4 176.28-23.8 175.72-22.85 175.16-21.9 174.83-20.7 174.5-19.51 174.33-18.3 174.16-17.09 174.1-15.99 174.04-14.89 174.04-14.14L174.04-14.14 174.04 0 165.81 0 165.81-13.13Q165.81-13.99 165.83-15.2 165.86-16.41 165.77-17.72 165.69-19.04 165.46-20.35 165.22-21.66 164.72-22.68 164.22-23.71 163.37-24.35 162.51-25 161.22-25L161.22-25Q160.12-25 159.38-24.39 158.63-23.78 158.13-22.81 157.63-21.85 157.35-20.64 157.07-19.43 156.94-18.23 156.8-17.02 156.78-15.93 156.75-14.84 156.75-14.14L156.75-14.14 156.75 0 148.48 0 148.48-28.2 151.65-28.2 154.68-21.63Q155.7-25.05 157.91-26.97 160.12-28.88 163.78-28.88L163.78-28.88Q167.08-28.88 169.25-27.51 171.43-26.15 172.67-23.07L172.67-23.07Q173.38-24.41 174.25-25.49 175.11-26.56 176.17-27.32 177.24-28.08 178.53-28.48 179.82-28.88 181.39-28.88L181.39-28.88Q184.27-28.88 186.31-27.94 188.34-27 189.64-25.34 190.93-23.68 191.52-21.4 192.1-19.12 192.1-16.46ZM204.38-13.38L204.38-13.38Q205.9-13.04 207.41-12.84 208.92-12.65 210.46-12.65L210.46-12.65Q212.07-12.65 213.45-12.95 214.83-13.26 215.84-13.98 216.86-14.7 217.44-15.89 218.03-17.09 218.03-18.87L218.03-18.87Q218.03-20.31 217.64-21.51 217.25-22.71 216.48-23.56 215.71-24.41 214.59-24.89 213.46-25.37 211.97-25.37L211.97-25.37Q210.58-25.37 209.47-24.85 208.36-24.34 207.52-23.47 206.68-22.61 206.08-21.46 205.48-20.31 205.09-19.07 204.7-17.82 204.53-16.55 204.36-15.28 204.36-14.16L204.36-14.16Q204.36-13.96 204.36-13.77 204.36-13.57 204.38-13.38ZM224.72-18.95L224.72-18.95Q224.72-17.21 224.16-15.86 223.6-14.5 222.63-13.48 221.67-12.45 220.4-11.74 219.13-11.04 217.69-10.58 216.25-10.13 214.72-9.94 213.2-9.74 211.76-9.74L211.76-9.74Q209.92-9.74 208.14-10 206.36-10.25 204.63-10.82L204.63-10.82Q204.89-9.2 205.48-7.75 206.07-6.3 207.04-5.21 208.02-4.13 209.45-3.49 210.88-2.86 212.83-2.86L212.83-2.86Q214.12-2.86 215.3-3.25 216.47-3.64 217.44-4.35 218.42-5.05 219.16-6.03 219.91-7.01 220.37-8.2L220.37-8.2 223.94-6.88Q223.13-4.96 221.73-3.55 220.32-2.15 218.55-1.23 216.78-0.32 214.79 0.12 212.8 0.56 210.85 0.56L210.85 0.56Q207.63 0.56 204.89-0.52 202.16-1.61 200.18-3.56 198.21-5.52 197.08-8.23 195.96-10.94 195.96-14.16L195.96-14.16Q195.96-17.38 197.08-20.09 198.21-22.8 200.18-24.76 202.16-26.71 204.89-27.8 207.63-28.88 210.85-28.88L210.85-28.88Q212.41-28.88 214.05-28.66 215.69-28.44 217.22-27.97 218.76-27.49 220.13-26.73 221.5-25.98 222.51-24.87 223.52-23.75 224.12-22.29 224.72-20.83 224.72-18.95ZM253.84-25.71L253.84-25.71 249.2-18.02Q248.91-18.99 248.45-20.21 247.98-21.44 247.3-22.5 246.62-23.56 245.66-24.28 244.71-25 243.47-25L243.47-25Q242.32-25 241.48-24.41 240.63-23.83 240.05-22.89 239.46-21.95 239.08-20.76 238.71-19.58 238.5-18.37 238.29-17.16 238.22-16.05 238.14-14.94 238.14-14.14L238.14-14.14 238.14 0 229.87 0 229.87-28.2 233.04-28.2 236.39-21.63Q237.07-23.22 237.95-24.55 238.83-25.88 239.98-26.84 241.12-27.81 242.58-28.34 244.03-28.88 245.86-28.88L245.86-28.88Q246.81-28.88 247.98-28.72 249.15-28.56 250.28-28.19 251.4-27.81 252.35-27.2 253.31-26.59 253.84-25.71ZM282.58-21.22L282.58-21.22 279.01-19.8Q278.16-22.49 276.15-23.93 274.15-25.37 271.34-25.37L271.34-25.37Q269.83-25.37 268.65-24.89 267.46-24.41 266.57-23.58 265.68-22.75 265.06-21.66 264.44-20.56 264.05-19.31 263.65-18.07 263.48-16.74 263.31-15.41 263.31-14.16L263.31-14.16Q263.31-12.82 263.46-11.45 263.61-10.08 263.96-8.83 264.31-7.57 264.9-6.48 265.49-5.4 266.38-4.59 267.27-3.78 268.5-3.32 269.73-2.86 271.34-2.86L271.34-2.86Q272.64-2.86 273.81-3.25 274.98-3.64 275.96-4.35 276.94-5.05 277.69-6.03 278.45-7.01 278.89-8.2L278.89-8.2 282.48-6.88Q281.67-4.96 280.34-3.55 279.01-2.15 277.33-1.23 275.64-0.32 273.71 0.12 271.78 0.56 269.81 0.56L269.81 0.56Q266.61 0.56 263.87-0.52 261.14-1.61 259.15-3.58 257.16-5.54 256.04-8.24 254.91-10.94 254.91-14.16L254.91-14.16Q254.91-17.41 256.02-20.12 257.14-22.83 259.11-24.78 261.09-26.73 263.83-27.81 266.56-28.88 269.81-28.88L269.81-28.88Q271.86-28.88 273.81-28.43 275.76-27.98 277.44-27.04 279.11-26.1 280.44-24.66 281.77-23.22 282.58-21.22ZM294.24-13.38L294.24-13.38Q295.76-13.04 297.27-12.84 298.78-12.65 300.32-12.65L300.32-12.65Q301.93-12.65 303.31-12.95 304.69-13.26 305.71-13.98 306.72-14.7 307.3-15.89 307.89-17.09 307.89-18.87L307.89-18.87Q307.89-20.31 307.5-21.51 307.11-22.71 306.34-23.56 305.57-24.41 304.45-24.89 303.32-25.37 301.84-25.37L301.84-25.37Q300.44-25.37 299.33-24.85 298.22-24.34 297.38-23.47 296.54-22.61 295.94-21.46 295.34-20.31 294.95-19.07 294.56-17.82 294.39-16.55 294.22-15.28 294.22-14.16L294.22-14.16Q294.22-13.96 294.22-13.77 294.22-13.57 294.24-13.38ZM314.58-18.95L314.58-18.95Q314.58-17.21 314.02-15.86 313.46-14.5 312.49-13.48 311.53-12.45 310.26-11.74 308.99-11.04 307.55-10.58 306.11-10.13 304.58-9.94 303.06-9.74 301.62-9.74L301.62-9.74Q299.78-9.74 298-10 296.22-10.25 294.49-10.82L294.49-10.82Q294.76-9.2 295.34-7.75 295.93-6.3 296.9-5.21 297.88-4.13 299.31-3.49 300.74-2.86 302.69-2.86L302.69-2.86Q303.98-2.86 305.16-3.25 306.33-3.64 307.3-4.35 308.28-5.05 309.03-6.03 309.77-7.01 310.23-8.2L310.23-8.2 313.8-6.88Q312.99-4.96 311.59-3.55 310.19-2.15 308.42-1.23 306.65-0.32 304.66 0.12 302.67 0.56 300.71 0.56L300.71 0.56Q297.49 0.56 294.76-0.52 292.02-1.61 290.04-3.56 288.07-5.52 286.94-8.23 285.82-10.94 285.82-14.16L285.82-14.16Q285.82-17.38 286.94-20.09 288.07-22.8 290.04-24.76 292.02-26.71 294.76-27.8 297.49-28.88 300.71-28.88L300.71-28.88Q302.27-28.88 303.91-28.66 305.55-28.44 307.08-27.97 308.62-27.49 309.99-26.73 311.36-25.98 312.37-24.87 313.38-23.75 313.98-22.29 314.58-20.83 314.58-18.95ZM367.89-16.82L367.89-16.82 367.89-16.36Q367.85-14.31 367.47-12.11 367.09-9.91 366.41-7.71 365.72-5.52 364.77-3.37 363.82-1.22 362.63 0.74 361.45 2.71 360.08 4.43 358.72 6.15 357.2 7.47L357.2 7.47 353.56 5.37Q354.42 3.93 355.11 2.23 355.81 0.54 356.37-1.32 356.93-3.17 357.34-5.13 357.74-7.08 358.01-9.01 358.28-10.94 358.41-12.81 358.54-14.67 358.54-16.36L358.54-16.36Q358.54-17.68 358.53-19.35 358.52-21.02 358.34-22.75 358.15-24.49 357.74-26.14 357.32-27.78 356.51-29.08 355.69-30.37 354.41-31.15 353.12-31.93 351.22-31.93L351.22-31.93Q349.54-31.93 348.33-31.36 347.12-30.79 346.28-29.82 345.43-28.86 344.93-27.59 344.43-26.32 344.15-24.91 343.87-23.51 343.79-22.08 343.7-20.65 343.7-19.38L343.7-19.38 343.7-12.57 354.22-12.57 354.22-8.54 343.7-8.54 343.7 0 334.01 0 334.01-17.87Q334.01-21.7 335.23-25 336.45-28.3 338.68-30.73 340.92-33.15 344.05-34.53 347.19-35.91 351.05-35.91L351.05-35.91Q353.66-35.91 355.94-35.17 358.23-34.42 360.11-33.12 361.99-31.81 363.46-30.02 364.94-28.22 365.93-26.1 366.92-23.97 367.43-21.61 367.94-19.24 367.89-16.82ZM403.27-14.16L403.27-14.16Q403.27-11.08 402.34-8.4 401.41-5.71 399.66-3.72 397.9-1.73 395.36-0.59 392.82 0.56 389.6 0.56L389.6 0.56Q387.13 0.56 385.07-0.4 383-1.37 381.54-3.37L381.54-3.37 381.54 13.01 373.29 13.01 373.29-28.2 376.46-28.2 380.12-22.07Q380.66-23.61 381.6-24.87 382.54-26.12 383.77-27.01 385.01-27.91 386.48-28.39 387.96-28.88 389.6-28.88L389.6-28.88Q392.82-28.88 395.36-27.73 397.9-26.59 399.66-24.6 401.41-22.61 402.34-19.92 403.27-17.24 403.27-14.16ZM394.89-14.16L394.89-14.16Q394.89-15.23 394.78-16.44 394.67-17.65 394.41-18.85 394.14-20.04 393.66-21.14 393.19-22.24 392.45-23.08 391.72-23.93 390.68-24.43 389.65-24.93 388.28-24.93L388.28-24.93Q386.86-24.93 385.82-24.44 384.79-23.95 384.04-23.11 383.3-22.27 382.82-21.18 382.35-20.09 382.08-18.9 381.81-17.7 381.7-16.48 381.59-15.26 381.59-14.16L381.59-14.16Q381.59-13.18 381.74-12 381.88-10.82 382.2-9.62 382.52-8.42 383.03-7.3 383.54-6.18 384.29-5.3 385.03-4.42 386.02-3.89 387.01-3.37 388.28-3.37L388.28-3.37Q389.67-3.37 390.7-3.87 391.72-4.37 392.45-5.21 393.19-6.05 393.66-7.15 394.14-8.25 394.41-9.45 394.67-10.64 394.78-11.87 394.89-13.09 394.89-14.16ZM438.54-14.16L438.54-14.16Q438.54-11.08 437.62-8.4 436.69-5.71 434.93-3.72 433.17-1.73 430.63-0.59 428.1 0.56 424.87 0.56L424.87 0.56Q422.41 0.56 420.34-0.4 418.28-1.37 416.82-3.37L416.82-3.37 416.82 13.01 408.56 13.01 408.56-28.2 411.74-28.2 415.4-22.07Q415.94-23.61 416.88-24.87 417.82-26.12 419.05-27.01 420.28-27.91 421.76-28.39 423.24-28.88 424.87-28.88L424.87-28.88Q428.1-28.88 430.63-27.73 433.17-26.59 434.93-24.6 436.69-22.61 437.62-19.92 438.54-17.24 438.54-14.16ZM430.17-14.16L430.17-14.16Q430.17-15.23 430.06-16.44 429.95-17.65 429.68-18.85 429.41-20.04 428.94-21.14 428.46-22.24 427.73-23.08 427-23.93 425.96-24.43 424.92-24.93 423.55-24.93L423.55-24.93Q422.14-24.93 421.1-24.44 420.06-23.95 419.32-23.11 418.57-22.27 418.1-21.18 417.62-20.09 417.35-18.9 417.08-17.7 416.97-16.48 416.86-15.26 416.86-14.16L416.86-14.16Q416.86-13.18 417.01-12 417.16-10.82 417.47-9.62 417.79-8.42 418.3-7.3 418.82-6.18 419.56-5.3 420.31-4.42 421.3-3.89 422.28-3.37 423.55-3.37L423.55-3.37Q424.95-3.37 425.97-3.87 427-4.37 427.73-5.21 428.46-6.05 428.94-7.15 429.41-8.25 429.68-9.45 429.95-10.64 430.06-11.87 430.17-13.09 430.17-14.16Z" opacity="1" transform="matrix(1,0,0,1,0,0)" fill="#190e0e" class="wordmark-text-0" data-fill-palette-color="quaternary" id="text-0"></path></svg></g></svg></g><g transform="matrix(1,0,0,1,0,29.66204072412741)"><svg viewBox="0 0 213.1584412271571 14.83010847837086" height="14.83010847837086" width="213.1584412271571"><g transform="matrix(1,0,0,1,0,0)"><svg width="213.1584412271571" viewBox="2.3 -35.2 622.37 43.300000000000004" height="14.83010847837086" data-palette-color="#190e0e"><path d="M13.55 0.65L13.55 0.65Q10.85 0.65 8.75 0.08 6.65-0.5 5.25-1.58 3.85-2.65 3.1-4.15 2.35-5.65 2.3-7.45L2.3-7.45 6.15-8.45Q6.05-6.8 6.98-5.58 7.9-4.35 9.63-3.7 11.35-3.05 13.8-3.05L13.8-3.05Q16.75-3.05 18.38-4.05 20-5.05 20-6.8L20-6.8Q20-8.2 19.1-8.97 18.2-9.75 16.63-10.23 15.05-10.7 12.9-11.1L12.9-11.1Q11.1-11.5 9.3-12 7.5-12.5 6.03-13.33 4.55-14.15 3.65-15.5 2.75-16.85 2.75-18.85L2.75-18.85Q2.75-21.2 4-22.9 5.25-24.6 7.55-25.55 9.85-26.5 13.05-26.5L13.05-26.5Q16.25-26.5 18.5-25.53 20.75-24.55 22.05-22.8 23.35-21.05 23.5-18.7L23.5-18.7 19.55-17.7Q19.5-19.35 18.68-20.5 17.85-21.65 16.35-22.23 14.85-22.8 12.85-22.8L12.85-22.8Q10.2-22.8 8.65-21.8 7.1-20.8 7.1-19.05L7.1-19.05Q7.1-17.75 8.03-16.95 8.95-16.15 10.55-15.7 12.15-15.25 14.1-14.8L14.1-14.8Q16.1-14.4 17.93-13.9 19.75-13.4 21.2-12.6 22.65-11.8 23.5-10.48 24.35-9.15 24.35-7.1L24.35-7.1Q24.35-4.55 23-2.83 21.65-1.1 19.23-0.23 16.8 0.65 13.55 0.65ZM60.31 0L55.76 0 55.76-15.7 55.76-35 60.46-35 60.46-26.95Q60.46-25.85 60.39-24.73 60.31-23.6 60.19-22.45 60.06-21.3 59.91-20.13 59.76-18.95 59.56-17.75L59.56-17.75 60.41-17.75Q61.16-20.7 62.31-22.63 63.46-24.55 65.19-25.53 66.91-26.5 69.31-26.5L69.31-26.5Q73.71-26.5 75.89-23.43 78.06-20.35 78.06-14.25L78.06-14.25 78.06 0 73.46 0 73.46-13.8Q73.46-18.3 72.09-20.38 70.71-22.45 67.96-22.45L67.96-22.45Q65.66-22.45 64.06-21.1 62.46-19.75 61.54-17.45 60.61-15.15 60.31-12.2L60.31-12.2 60.31 0ZM121.98 0.65L121.98 0.65Q118.28 0.65 115.45-0.98 112.63-2.6 111.05-5.65 109.48-8.7 109.48-13.05L109.48-13.05Q109.48-17.55 111.15-20.53 112.83-23.5 115.63-25 118.43-26.5 121.88-26.5L121.88-26.5Q125.48-26.5 128.3-24.93 131.13-23.35 132.78-20.33 134.43-17.3 134.43-12.85L134.43-12.85Q134.43-8.4 132.8-5.4 131.18-2.4 128.35-0.88 125.53 0.65 121.98 0.65ZM122.18-3.1L122.18-3.1Q124.58-3.1 126.3-4.28 128.03-5.45 128.95-7.6 129.88-9.75 129.88-12.7L129.88-12.7Q129.88-15.75 128.9-17.98 127.93-20.2 126.13-21.43 124.33-22.65 121.78-22.65L121.78-22.65Q119.43-22.65 117.7-21.55 115.98-20.45 115.03-18.32 114.08-16.2 114.08-13.15L114.08-13.15Q114.08-8.45 116.25-5.78 118.43-3.1 122.18-3.1ZM170.84 8.1L166.24 8.1 166.24-12.9 166.24-25.85 170.34-25.85 170.09-19.2 170.84-19.2Q171.44-21.4 172.52-23.03 173.59-24.65 175.29-25.58 176.99-26.5 179.39-26.5L179.39-26.5Q182.94-26.5 185.32-24.73 187.69-22.95 188.89-19.88 190.09-16.8 190.09-12.9L190.09-12.9Q190.09-9 188.89-5.95 187.69-2.9 185.37-1.13 183.04 0.65 179.69 0.65L179.69 0.65Q176.99 0.65 175.22-0.48 173.44-1.6 172.39-3.45 171.34-5.3 170.74-7.3L170.74-7.3 169.89-7.3Q170.19-5.95 170.39-4.5 170.59-3.05 170.72-1.63 170.84-0.2 170.84 1.1L170.84 1.1 170.84 8.1ZM178.54-3.3L178.54-3.3Q180.74-3.3 182.24-4.58 183.74-5.85 184.54-8.05 185.34-10.25 185.34-13L185.34-13Q185.34-15.95 184.52-18.05 183.69-20.15 182.19-21.33 180.69-22.5 178.54-22.5L178.54-22.5Q176.69-22.5 175.27-21.68 173.84-20.85 172.84-19.48 171.84-18.1 171.32-16.48 170.79-14.85 170.79-13.25L170.79-13.25 170.79-12.65Q170.79-11.65 171.09-10.43 171.39-9.2 171.99-7.95 172.59-6.7 173.52-5.65 174.44-4.6 175.69-3.95 176.94-3.3 178.54-3.3ZM273.82 0.65L273.82 0.65Q271.12 0.65 268.92 0.08 266.72-0.5 265.07-1.63 263.42-2.75 262.29-4.35 261.17-5.95 260.59-8 260.02-10.05 260.02-12.55L260.02-12.55 260.02-33 264.62-33 264.62-12.7Q264.62-9.7 265.67-7.68 266.72-5.65 268.77-4.6 270.82-3.55 273.82-3.55L273.82-3.55Q276.92-3.55 278.94-4.58 280.97-5.6 281.99-7.65 283.02-9.7 283.02-12.7L283.02-12.7 283.02-33 287.57-33 287.57-12.55Q287.57-6.25 284.07-2.8 280.57 0.65 273.82 0.65ZM325.88 0L321.28 0 321.28-33 332.78-33Q335.28-33 337.36-32.6 339.43-32.2 341.06-31.4 342.68-30.6 343.81-29.45 344.93-28.3 345.51-26.78 346.08-25.25 346.08-23.4L346.08-23.4Q346.08-21.65 345.56-20.2 345.03-18.75 343.98-17.65 342.93-16.55 341.38-15.88 339.83-15.2 337.78-14.95L337.78-14.95 337.78-14.3Q339.58-14.1 340.93-13.35 342.28-12.6 343.23-11.18 344.18-9.75 344.88-7.4L344.88-7.4 346.98 0 342.03 0 340.33-6.75Q339.88-8.8 338.81-10.05 337.73-11.3 336.13-11.9 334.53-12.5 332.38-12.5L332.38-12.5 325.88-12.5 325.88 0ZM325.88-29.2L325.88-16.25 332.38-16.25Q336.83-16.25 339.11-17.85 341.38-19.45 341.38-22.75L341.38-22.75Q341.38-26.05 339.21-27.63 337.03-29.2 332.48-29.2L332.48-29.2 325.88-29.2ZM426.31 0.65L426.31 0.65Q423.61 0.65 421.51 0.08 419.41-0.5 418.01-1.58 416.61-2.65 415.86-4.15 415.11-5.65 415.06-7.45L415.06-7.45 418.91-8.45Q418.81-6.8 419.74-5.58 420.66-4.35 422.39-3.7 424.11-3.05 426.56-3.05L426.56-3.05Q429.51-3.05 431.14-4.05 432.76-5.05 432.76-6.8L432.76-6.8Q432.76-8.2 431.86-8.97 430.96-9.75 429.39-10.23 427.81-10.7 425.66-11.1L425.66-11.1Q423.86-11.5 422.06-12 420.26-12.5 418.79-13.33 417.31-14.15 416.41-15.5 415.51-16.85 415.51-18.85L415.51-18.85Q415.51-21.2 416.76-22.9 418.01-24.6 420.31-25.55 422.61-26.5 425.81-26.5L425.81-26.5Q429.01-26.5 431.26-25.53 433.51-24.55 434.81-22.8 436.11-21.05 436.26-18.7L436.26-18.7 432.31-17.7Q432.26-19.35 431.44-20.5 430.61-21.65 429.11-22.23 427.61-22.8 425.61-22.8L425.61-22.8Q422.96-22.8 421.41-21.8 419.86-20.8 419.86-19.05L419.86-19.05Q419.86-17.75 420.79-16.95 421.71-16.15 423.31-15.7 424.91-15.25 426.86-14.8L426.86-14.8Q428.86-14.4 430.69-13.9 432.51-13.4 433.96-12.6 435.41-11.8 436.26-10.48 437.11-9.15 437.11-7.1L437.11-7.1Q437.11-4.55 435.76-2.83 434.41-1.1 431.99-0.23 429.56 0.65 426.31 0.65ZM476.57 0.5L476.57 0.5Q472.97 0.5 471.22-1.45 469.47-3.4 469.47-7.4L469.47-7.4 469.47-22.05 465.57-22.05 465.62-25.85 468.07-25.85Q469.32-25.85 469.9-26.3 470.47-26.75 470.57-27.8L470.57-27.8 471.07-31.7 473.87-31.7 473.87-25.85 481.32-25.85 481.32-22 473.87-22 473.87-7.5Q473.87-5.5 474.8-4.63 475.72-3.75 477.47-3.75L477.47-3.75Q478.42-3.75 479.45-4 480.47-4.25 481.47-5L481.47-5 481.47-0.45Q480.02 0.1 478.8 0.3 477.57 0.5 476.57 0.5ZM520.69 0.65L520.69 0.65Q516.39 0.65 514.19-2.35 511.99-5.35 511.99-11.3L511.99-11.3 511.99-25.85 516.59-25.85 516.59-11.7Q516.59-7.5 517.89-5.45 519.19-3.4 521.99-3.4L521.99-3.4Q523.54-3.4 524.76-4.15 525.99-4.9 526.94-6.3 527.89-7.7 528.49-9.63 529.09-11.55 529.29-13.8L529.29-13.8 529.29-25.85 533.84-25.85 533.84-10.8 533.84 0 529.79 0 530.19-8.3 529.44-8.3Q528.79-5.2 527.61-3.23 526.44-1.25 524.69-0.3 522.94 0.65 520.69 0.65ZM573.6 0L569.1 0 569.1-18.25 564.5-18.25 564.5-21.9 570.95-21.5 570.95-22.35Q569.7-22.85 568.88-23.73 568.05-24.6 567.63-25.75 567.2-26.9 567.2-28.2L567.2-28.2Q567.2-30.3 568.13-31.85 569.05-33.4 570.78-34.3 572.5-35.2 574.9-35.2L574.9-35.2Q576.8-35.2 578.33-34.68 579.85-34.15 580.85-33.3L580.85-33.3 580.3-29.05Q579.35-29.95 578-30.48 576.65-31 575.3-31L575.3-31Q573.65-31 572.6-29.95 571.55-28.9 571.55-26.7L571.55-26.7Q571.55-25.45 571.9-24.55 572.25-23.65 572.83-23.03 573.4-22.4 574-22L574-22 580.4-22 580.35-18.25 573.6-18.25 573.6 0ZM617.42 0L612.92 0 612.92-18.25 608.32-18.25 608.32-21.9 614.77-21.5 614.77-22.35Q613.52-22.85 612.69-23.73 611.87-24.6 611.44-25.75 611.02-26.9 611.02-28.2L611.02-28.2Q611.02-30.3 611.94-31.85 612.87-33.4 614.59-34.3 616.32-35.2 618.72-35.2L618.72-35.2Q620.62-35.2 622.14-34.68 623.67-34.15 624.67-33.3L624.67-33.3 624.12-29.05Q623.17-29.95 621.82-30.48 620.47-31 619.12-31L619.12-31Q617.47-31 616.42-29.95 615.37-28.9 615.37-26.7L615.37-26.7Q615.37-25.45 615.72-24.55 616.07-23.65 616.64-23.03 617.22-22.4 617.82-22L617.82-22 624.22-22 624.17-18.25 617.42-18.25 617.42 0Z" opacity="1" transform="matrix(1,0,0,1,0,0)" fill="#190e0e" class="slogan-text-1" data-fill-palette-color="quaternary" id="text-1"></path></svg></g></svg></g></svg></g></svg></g><g transform="matrix(1,0,0,1,71.60783518854988,0)"><svg viewBox="0 0 69.94277085005734 61.48815019785262" height="61.48815019785262" width="69.94277085005734"><g><svg xmlns:dc="http://purl.org/dc/elements/1.1/" xmlns:cc="http://creativecommons.org/ns#" xmlns:rdf="http://www.w3.org/1999/02/22-rdf-syntax-ns#" xmlns:svg="http://www.w3.org/2000/svg" xmlns="http://www.w3.org/2000/svg" xmlns:sodipodi="http://sodipodi.sourceforge.net/DTD/sodipodi-0.dtd" xmlns:inkscape="http://www.inkscape.org/namespaces/inkscape" version="1.1" x="0" y="0" viewBox="9.4 14.5 109.19999999999999 96" enable-background="new 0 0 128 128" xml:space="preserve" height="61.48815019785262" width="69.94277085005734" class="icon-icon-0" data-fill-palette-color="quaternary" id="icon-0"><path d="M32.1 14.5C24.9 14.5 19.1 20.3 19.1 27.5V38.2L10 47.5C9.6 48 9.4 48.6 9.4 49.3V57.3C9.4 61.3 12.3 64.6 16.1 65.2 16.3 65.3 16.6 65.3 16.9 65.3H19.1V97.5C19.1 104.7 24.9 110.5 32.1 110.5H96.1C103.3 110.5 109.1 104.7 109.1 97.5V65.3H110.6C115 65.3 118.6 61.7 118.6 57.3V49.3C118.6 49.1 118.6 48.9 118.5 48.8V48.6C118.5 48.5 118.4 48.4 118.4 48.3S118.3 48.2 118.3 48.1 118.2 47.9 118.1 47.8C118.1 47.7 118 47.7 118 47.6V47.5L109.1 38.5V27.5C109.1 20.3 103.3 14.5 96.1 14.5zM32.1 20.5H96.1C100 20.5 103.1 23.6 103.1 27.5V35.3H25.1V27.5C25.1 23.6 28.2 20.5 32.1 20.5M32.1 25.5A3 3 0 0 0 29.1 28.5 3 3 0 0 0 32.1 31.5 3 3 0 0 0 35.1 28.5 3 3 0 0 0 32.1 25.5M42.1 25.5A3 3 0 0 0 39.1 28.5 3 3 0 0 0 42.1 31.5 3 3 0 0 0 45.1 28.5 3 3 0 0 0 42.1 25.5M52.1 25.5A3 3 0 0 0 49.1 28.5 3 3 0 0 0 52.1 31.5 3 3 0 0 0 55.1 28.5 3 3 0 0 0 52.1 25.5M15.4 52.3H112.6V57.3C112.6 58.4 111.7 59.3 110.6 59.3H106.1C104.4 59.3 103.1 60.6 103.1 62.3V97.5C103.1 101.4 100 104.5 96.1 104.5H32.1C28.2 104.5 25.1 101.4 25.1 97.5V62.3C25.1 60.6 23.8 59.3 22.1 59.3H17.4C16.3 59.3 15.4 58.4 15.4 57.3zM34.9 59.3C33.2 59.3 31.9 60.6 31.9 62.3S33.2 65.3 34.9 65.3H45.1C46.8 65.3 48.1 64 48.1 62.3S46.8 59.3 45.1 59.3zM58.9 59.3C57.2 59.3 55.9 60.6 55.9 62.3S57.2 65.3 58.9 65.3H69.1C70.8 65.3 72.1 64 72.1 62.3S70.8 59.3 69.1 59.3zM82.9 59.3C81.2 59.3 79.9 60.6 79.9 62.3S81.2 65.3 82.9 65.3H93.1C94.8 65.3 96.1 64 96.1 62.3S94.8 59.3 93.1 59.3z" fill="#190e0e" stroke="none" data-fill-palette-color="quaternary"></path></svg></g></svg></g><g></g></svg></g></svg></g></svg></g></svg></g><defs></defs></svg><rect width="342.85155851775386" height="342.85155851775386" fill="none" stroke="none" visibility="hidden"></rect></g></svg></g></svg>