<svg xmlns="http://www.w3.org/2000/svg" version="1.1" xmlns:xlink="http://www.w3.org/1999/xlink" xmlns:svgjs="http://svgjs.dev/svgjs" width="128" height="128" viewBox="0 0 128 128"><g transform="matrix(0.8046875,0,0,0.8046875,12.41184074821259,12.814873242367177)"><svg viewBox="0 0 98 98" data-background-color="#111111" preserveAspectRatio="xMidYMid meet" height="127" width="128" xmlns="http://www.w3.org/2000/svg" xmlns:xlink="http://www.w3.org/1999/xlink"><g id="tight-bounds" transform="matrix(1,0,0,1,0.08387967645792571,0.08387967645792571)"><svg viewBox="0 0 97.83224064708415 97.83224064708415" height="97.83224064708415" width="97.83224064708415"><g><svg></svg></g><g><svg viewBox="0 0 97.83224064708415 97.83224064708415" height="97.83224064708415" width="97.83224064708415"><g><path d="M0 48.916c0-27.016 21.9-48.916 48.916-48.916 27.016 0 48.916 21.9 48.916 48.916 0 27.016-21.9 48.916-48.916 48.916-27.016 0-48.916-21.9-48.916-48.916zM48.916 93.798c24.788 0 44.882-20.094 44.882-44.882 0-24.788-20.094-44.882-44.882-44.882-24.788 0-44.882 20.094-44.882 44.882 0 24.788 20.094 44.882 44.882 44.882z" data-fill-palette-color="tertiary" fill="#ffdc00" stroke="transparent"></path><ellipse rx="46.95947551060039" ry="46.95947551060039" cx="48.916120323542074" cy="48.916120323542074" fill="#ffdc00" stroke="transparent" stroke-width="0" fill-opacity="1" data-fill-palette-color="tertiary"></ellipse></g><g transform="matrix(1,0,0,1,23.47539391502934,26.55064655781659)"><svg viewBox="0 0 50.88145281702547 44.730947531450965" height="44.730947531450965" width="50.88145281702547"><g><svg viewBox="0 0 50.88145281702547 44.730947531450965" height="44.730947531450965" width="50.88145281702547"><g><svg viewBox="0 0 50.88145281702547 44.730947531450965" height="44.730947531450965" width="50.88145281702547"><g id="textblocktransform"><svg viewBox="0 0 50.88145281702547 44.730947531450965" height="44.730947531450965" width="50.88145281702547" id="textblock"><g><svg viewBox="0 0 50.88145281702547 44.730947531450965" height="44.730947531450965" width="50.88145281702547"><g><svg viewBox="0 0 50.88145281702547 44.730947531450965" height="44.730947531450965" width="50.88145281702547"><g><svg xmlns:dc="http://purl.org/dc/elements/1.1/" xmlns:cc="http://creativecommons.org/ns#" xmlns:rdf="http://www.w3.org/1999/02/22-rdf-syntax-ns#" xmlns:svg="http://www.w3.org/2000/svg" xmlns="http://www.w3.org/2000/svg" xmlns:sodipodi="http://sodipodi.sourceforge.net/DTD/sodipodi-0.dtd" xmlns:inkscape="http://www.inkscape.org/namespaces/inkscape" version="1.1" x="0" y="0" viewBox="9.4 14.5 109.19999999999999 96" enable-background="new 0 0 128 128" xml:space="preserve" height="44.730947531450965" width="50.88145281702547" class="icon-icon-0" data-fill-palette-color="quaternary" id="icon-0"><path d="M32.1 14.5C24.9 14.5 19.1 20.3 19.1 27.5V38.2L10 47.5C9.6 48 9.4 48.6 9.4 49.3V57.3C9.4 61.3 12.3 64.6 16.1 65.2 16.3 65.3 16.6 65.3 16.9 65.3H19.1V97.5C19.1 104.7 24.9 110.5 32.1 110.5H96.1C103.3 110.5 109.1 104.7 109.1 97.5V65.3H110.6C115 65.3 118.6 61.7 118.6 57.3V49.3C118.6 49.1 118.6 48.9 118.5 48.8V48.6C118.5 48.5 118.4 48.4 118.4 48.3S118.3 48.2 118.3 48.1 118.2 47.9 118.1 47.8C118.1 47.7 118 47.7 118 47.6V47.5L109.1 38.5V27.5C109.1 20.3 103.3 14.5 96.1 14.5zM32.1 20.5H96.1C100 20.5 103.1 23.6 103.1 27.5V35.3H25.1V27.5C25.1 23.6 28.2 20.5 32.1 20.5M32.1 25.5A3 3 0 0 0 29.1 28.5 3 3 0 0 0 32.1 31.5 3 3 0 0 0 35.1 28.5 3 3 0 0 0 32.1 25.5M42.1 25.5A3 3 0 0 0 39.1 28.5 3 3 0 0 0 42.1 31.5 3 3 0 0 0 45.1 28.5 3 3 0 0 0 42.1 25.5M52.1 25.5A3 3 0 0 0 49.1 28.5 3 3 0 0 0 52.1 31.5 3 3 0 0 0 55.1 28.5 3 3 0 0 0 52.1 25.5M15.4 52.3H112.6V57.3C112.6 58.4 111.7 59.3 110.6 59.3H106.1C104.4 59.3 103.1 60.6 103.1 62.3V97.5C103.1 101.4 100 104.5 96.1 104.5H32.1C28.2 104.5 25.1 101.4 25.1 97.5V62.3C25.1 60.6 23.8 59.3 22.1 59.3H17.4C16.3 59.3 15.4 58.4 15.4 57.3zM34.9 59.3C33.2 59.3 31.9 60.6 31.9 62.3S33.2 65.3 34.9 65.3H45.1C46.8 65.3 48.1 64 48.1 62.3S46.8 59.3 45.1 59.3zM58.9 59.3C57.2 59.3 55.9 60.6 55.9 62.3S57.2 65.3 58.9 65.3H69.1C70.8 65.3 72.1 64 72.1 62.3S70.8 59.3 69.1 59.3zM82.9 59.3C81.2 59.3 79.9 60.6 79.9 62.3S81.2 65.3 82.9 65.3H93.1C94.8 65.3 96.1 64 96.1 62.3S94.8 59.3 93.1 59.3z" fill="#190e0e" stroke="none" data-fill-palette-color="quaternary"></path></svg></g></svg></g></svg></g></svg></g></svg></g><g></g></svg></g></svg></g></svg></g><defs></defs></svg><rect width="97.83224064708415" height="97.83224064708415" fill="none" stroke="none" visibility="hidden"></rect></g></svg></g></svg>